<?xml version="1.0" encoding="UTF-8"?>
<svg version="1.1" xmlns="http://www.w3.org/2000/svg" width="294" height="309">
<path d="M0 0 C0.83085658 -0.0060911 1.66171317 -0.01218221 2.51774722 -0.01845789 C5.27644453 -0.03498514 8.03467505 -0.03032685 10.79341125 -0.0255127 C12.78185501 -0.03285914 14.77029451 -0.04144704 16.75872803 -0.05117798 C22.14329884 -0.07334569 27.5277164 -0.07632691 32.91232657 -0.07443047 C37.41737237 -0.07431051 41.92238601 -0.08288522 46.42742282 -0.09120798 C57.06343832 -0.11042623 67.69937534 -0.11333213 78.33540344 -0.10656738 C89.28209346 -0.09993264 100.22844601 -0.12277196 111.1750676 -0.15988111 C120.59451787 -0.19064629 130.01385998 -0.2019306 139.43335944 -0.1980443 C145.04973859 -0.1959833 150.66585525 -0.20135518 156.28218651 -0.22593689 C161.56914732 -0.24831328 166.8555626 -0.24623591 172.14252663 -0.22600937 C174.07333938 -0.22261818 176.00418965 -0.22760599 177.93495178 -0.24199295 C193.26668054 -0.34827385 206.64314062 1.24960789 218.26728821 12.39440918 C226.48097482 20.5342649 230.44339686 30.31139483 230.54409921 41.8674686 C230.53945341 43.04588506 230.53945341 43.04588506 230.53471375 44.24810791 C230.53924486 45.10402251 230.54377597 45.95993712 230.54844439 46.84178853 C230.56103838 49.69109039 230.55947126 52.54019987 230.55781555 55.38952637 C230.56380394 57.44017786 230.5706102 59.49082709 230.57817078 61.54147339 C230.59580678 67.09949147 230.60052516 72.65744793 230.60180235 78.21549129 C230.60322592 81.69179611 230.60749943 85.16808535 230.61279678 88.64438629 C230.63128946 100.78307588 230.63946839 112.9217216 230.63789368 125.0604248 C230.63669265 136.35755727 230.65778955 147.65449857 230.689381 158.95158267 C230.71557316 168.66566066 230.72625973 178.37967633 230.72498286 188.09378934 C230.72447407 193.88893691 230.73011121 199.68391454 230.75133896 205.47902679 C230.77077066 210.93251123 230.77081199 216.38566447 230.75630569 221.83916092 C230.75422259 223.83370322 230.75888854 225.82826652 230.77102661 227.82277298 C230.85666744 242.87750506 229.667655 255.58213791 219.26728821 267.39440918 C208.13331323 278.21027059 195.47765257 281.10552687 180.45478821 282.08190918 C179.72509827 282.13049072 178.99540833 282.17907227 178.24360657 282.22912598 C174.41040185 282.43607579 170.98978277 282.36708458 167.26728821 281.39440918 C166.93728821 282.05440918 166.60728821 282.71440918 166.26728821 283.39440918 C166.26728821 282.73440918 166.26728821 282.07440918 166.26728821 281.39440918 C165.75166321 281.72440918 165.23603821 282.05440918 164.70478821 282.39440918 C161.48702309 283.71451795 158.71023541 283.52683023 155.26728821 283.39440918 C155.26728821 283.06440918 155.26728821 282.73440918 155.26728821 282.39440918 C150.64728821 282.06440918 146.02728821 281.73440918 141.26728821 281.39440918 C141.26728821 282.05440918 141.26728821 282.71440918 141.26728821 283.39440918 C140.60728821 283.06440918 139.94728821 282.73440918 139.26728821 282.39440918 C137.20435836 282.3028058 135.13839936 282.27689738 133.07344055 282.28088379 C131.77224274 282.28095932 130.47104492 282.28103485 129.13041687 282.28111267 C127.7046861 282.28621971 126.27895571 282.29143571 124.85322571 282.29675293 C123.3987686 282.29861771 121.94431087 282.30004133 120.48985291 282.30104065 C116.65936045 282.30486113 112.82890584 282.31468742 108.99842834 282.32574463 C105.09065767 282.33596883 101.1828809 282.34054044 97.27510071 282.34558105 C89.60581261 282.35631009 81.93655571 282.3733809 74.26728821 282.39440918 C74.26728821 282.72440918 74.26728821 283.05440918 74.26728821 283.39440918 C71.95728821 283.39440918 69.64728821 283.39440918 67.26728821 283.39440918 C67.26728821 283.06440918 67.26728821 282.73440918 67.26728821 282.39440918 C65.99627258 282.40601074 64.72525696 282.4176123 63.41572571 282.42956543 C56.36595612 282.4728859 49.31695931 282.44097934 42.26728821 282.39440918 C41.39475403 282.38923279 40.52221985 282.3840564 39.62324524 282.37872314 C33.65068752 282.34049401 27.67905805 282.27534626 21.70704651 282.18588257 C19.68364738 282.15850122 17.66014824 282.13763821 15.63661194 282.12368774 C-1.79022958 281.99404462 -17.00494138 281.14265927 -30.46318054 268.80847168 C-35.32104513 263.68835733 -40.73271179 255.54654975 -40.73271179 248.39440918 C-41.39271179 248.06440918 -42.05271179 247.73440918 -42.73271179 247.39440918 C-42.7794913 220.89025659 -42.81472978 194.38611022 -42.83633614 167.88192463 C-42.84663625 155.57479279 -42.86067238 143.26768664 -42.8835907 130.96057129 C-42.90356331 120.23015249 -42.91643742 109.4997523 -42.92088878 98.76931542 C-42.9234896 93.09087486 -42.92957628 87.41248755 -42.94417191 81.7340641 C-42.95781701 76.38172469 -42.96192049 71.02946011 -42.95892715 65.67710495 C-42.95947423 63.72007909 -42.96341016 61.76305055 -42.97112274 59.80603981 C-43.03542152 42.63853733 -43.06479568 25.38036419 -30.55302429 11.98425293 C-21.61577249 4.17854159 -11.82990978 -0.08315285 0 0 Z " fill="#002256" transform="translate(52.73271179199219,22.6055908203125)"/>
<path d="M0 0 C5.31107806 3.05695772 10.28407684 8.25395749 12.15234375 14.1796875 C13.60716342 22.11080117 11.76511723 27.42082068 7.515625 34.16015625 C5.97265625 35.953125 5.97265625 35.953125 4.515625 37.16015625 C3.855625 37.16015625 3.195625 37.16015625 2.515625 37.16015625 C2.185625 39.14015625 1.855625 41.12015625 1.515625 43.16015625 C2.17046875 43.29550781 2.8253125 43.43085937 3.5 43.5703125 C18.97354094 47.2201449 31.50460099 56.92840173 40.078125 70.22265625 C42.85418266 75.25886704 44.30283099 80.56428212 45.515625 86.16015625 C50.06514217 84.89052355 52.92253522 83.18591607 56.515625 80.16015625 C60.08024872 77.86745509 63.20641738 77.86115369 67.390625 77.84765625 C68.58429688 77.83089844 69.77796875 77.81414062 71.0078125 77.796875 C76.90537835 78.40764741 80.59121604 80.70968493 84.328125 85.22265625 C84.91207031 85.91488281 85.49601563 86.60710937 86.09765625 87.3203125 C90.02232831 92.41265558 89.11383505 99.03018362 88.515625 105.16015625 C86.30272355 111.18365563 82.0065347 115.54084351 76.19140625 118.23828125 C70.2600107 120.28179855 63.7619279 120.11368797 58.078125 117.41015625 C55.08380888 115.6999879 52.9497116 113.59424285 50.515625 111.16015625 C47.87377959 110.36334307 47.87377959 110.36334307 45.515625 110.16015625 C45.37253906 111.16175781 45.37253906 111.16175781 45.2265625 112.18359375 C42.03341406 125.55270973 33.6493908 136.47503722 22.53125 144.24609375 C16.18096696 148.14510173 9.60818087 150.91231866 2.515625 153.16015625 C3.03834805 156.92892488 3.81599265 158.92630756 6.453125 161.66015625 C10.5940351 165.9740282 11.81272866 170.02916565 11.890625 175.97265625 C11.76122645 181.52317281 11.15053644 185.83104422 7.515625 190.16015625 C1.32785162 195.34880292 -4.07975603 197.57462479 -12.1171875 197.4296875 C-19.16285333 196.62745822 -23.73676712 192.51711721 -28.07421875 187.171875 C-31.39070964 182.44059298 -32.14673346 177.83751449 -31.484375 172.16015625 C-29.63757394 167.2913171 -27.50304284 162.81890521 -23.609375 159.28515625 C-22.908125 158.58390625 -22.206875 157.88265625 -21.484375 157.16015625 C-21.3368691 155.09418944 -21.3368691 155.09418944 -22.484375 153.16015625 C-25.11225928 151.81383456 -25.11225928 151.81383456 -28.359375 150.84765625 C-45.02506287 144.86042118 -54.66921831 134.64674262 -62.484375 119.16015625 C-63.64249176 116.50307232 -64.60029253 113.92291398 -65.484375 111.16015625 C-67.77273722 110.74028679 -67.77273722 110.74028679 -70.484375 111.16015625 C-72.19430934 112.78240165 -73.85785184 114.4542905 -75.484375 116.16015625 C-80.9680966 120.03888616 -87.01377098 120.06144932 -93.484375 119.16015625 C-99.13858225 116.98760371 -103.12459614 113.10100751 -106.484375 108.16015625 C-109.08392552 101.35180965 -109.45914284 95.80591458 -106.546875 89.09765625 C-103.59717595 83.7308427 -100.29620045 80.28866457 -94.484375 78.16015625 C-88.30922616 77.26500444 -81.92058671 76.90409168 -76.296875 79.97265625 C-73.484375 82.16015625 -73.484375 82.16015625 -71.859375 83.91015625 C-69.84513996 85.74127901 -68.11611611 85.24532587 -65.484375 85.16015625 C-65.21625 84.42152344 -64.948125 83.68289062 -64.671875 82.921875 C-57.11513614 63.35887013 -43.8010186 52.04629651 -25.109375 43.66015625 C-23.913125 43.16515625 -22.716875 42.67015625 -21.484375 42.16015625 C-22.06826856 38.88465577 -23.05194726 37.27498269 -25.359375 34.91015625 C-29.45903714 30.29803634 -31.08709804 25.8417757 -31.984375 19.78515625 C-31.10500986 13.409759 -28.36571795 7.41211279 -23.421875 3.16015625 C-16.35528619 -1.65113826 -8.3155892 -2.81108754 0 0 Z " fill="#008DEE" transform="translate(157.484375,65.83984375)"/>
<path d="M0 0 C1.12643921 0.01848999 1.12643921 0.01848999 2.27563477 0.03735352 C12.37185918 0.34276896 18.0104034 2.90153768 25.39453125 9.9765625 C28.4005808 13.20898706 30.68221363 16.41834971 32.625 20.375 C32.94210938 21.01050781 33.25921875 21.64601562 33.5859375 22.30078125 C37.33779461 30.88874774 36.06646361 39.82159768 32.8828125 48.3671875 C28.67168342 57.94471116 21.07903252 63.4624075 11.625 67.375 C3.25909618 70.16363461 -7.45662727 69.28544812 -15.3359375 65.50390625 C-24.4716983 60.44598504 -30.78324113 53.59951482 -33.9609375 43.515625 C-35.92810016 33.34576519 -34.17848707 24.03399256 -29.08984375 15.125 C-22.5043129 5.43931674 -11.62682911 -0.23130817 0 0 Z " fill="#001E4F" transform="translate(147.375,129.625)"/>
<path d="M0 0 C5.620425 3.07532689 9.03071001 6.80778951 11.3125 12.8125 C11.90835197 18.27447638 11.00673742 22.03240134 8.3125 26.8125 C4.32019095 31.1103932 0.09483429 34.64833619 -5.9375 34.91015625 C-12.6622535 34.65387753 -16.97926628 32.59976881 -21.6875 27.8125 C-25.48381535 22.71120125 -25.5099565 16.94437015 -24.6875 10.8125 C-19.68401572 0.6202172 -10.66840461 -3.43558793 0 0 Z " fill="#008EEE" transform="translate(154.6875,147.1875)"/>
<path d="M0 0 C0.67578125 1.703125 0.67578125 1.703125 1 4 C-3.34311747 13.21932517 -11.73236157 20.41770384 -21 24.375 C-28.84613283 27.12781631 -36.55367152 28.15073325 -44.8125 28.6875 C-45.54218994 28.73608154 -46.27187988 28.78466309 -47.02368164 28.8347168 C-50.85688636 29.04166661 -54.27750544 28.9726754 -58 28 C-58.33 28.66 -58.66 29.32 -59 30 C-59 29.34 -59 28.68 -59 28 C-59.515625 28.33 -60.03125 28.66 -60.5625 29 C-63.78026512 30.32010877 -66.5570528 30.13242105 -70 30 C-70 29.67 -70 29.34 -70 29 C-76.93 28.505 -76.93 28.505 -84 28 C-84 28.66 -84 29.32 -84 30 C-84.66 29.67 -85.32 29.34 -86 29 C-88.06292985 28.90839663 -90.12888885 28.8824882 -92.19384766 28.88647461 C-93.49504547 28.88655014 -94.79624329 28.88662567 -96.13687134 28.88670349 C-97.56260211 28.89181053 -98.9883325 28.89702653 -100.4140625 28.90234375 C-101.86851961 28.90420853 -103.32297734 28.90563215 -104.7774353 28.90663147 C-108.60792776 28.91045195 -112.43838237 28.92027824 -116.26885986 28.93133545 C-120.17663053 28.94155965 -124.08440731 28.94613126 -127.9921875 28.95117188 C-135.6614756 28.96190092 -143.3307325 28.97897172 -151 29 C-151 29.33 -151 29.66 -151 30 C-153.31 30 -155.62 30 -158 30 C-158 29.67 -158 29.34 -158 29 C-159.27101563 29.01160156 -160.54203125 29.02320313 -161.8515625 29.03515625 C-175.90322486 29.11890284 -189.95071755 28.94356154 -203.99969482 28.68161011 C-206.07780438 28.64396834 -208.15597486 28.60954782 -210.23419189 28.57839966 C-213.20065193 28.532888 -216.16663409 28.47500163 -219.1328125 28.4140625 C-220.46910706 28.39672813 -220.46910706 28.39672813 -221.83239746 28.37904358 C-226.89315679 28.25943721 -231.23776176 27.77686031 -236 26 C-236.33 25.34 -236.66 24.68 -237 24 C-235.9536246 24.00276538 -234.9072492 24.00553076 -233.82916546 24.00837994 C-208.3474265 24.07503178 -182.86569888 24.12430254 -157.38389111 24.15543652 C-145.06099025 24.17089355 -132.73814705 24.19196088 -120.4152832 24.22631836 C-109.67243149 24.25625627 -98.92962153 24.27558346 -88.18672925 24.28226548 C-82.5004985 24.28617028 -76.81438721 24.29532298 -71.12819481 24.31719017 C-65.77091239 24.33762464 -60.4137981 24.34381972 -55.05648041 24.33932304 C-53.09538419 24.34014513 -51.13428207 24.34606911 -49.17321968 24.35761642 C-34.29034961 24.44091738 -20.42627569 23.88453571 -8.9609375 13.078125 C-5.29132635 9.04936042 -2.51253564 4.82406843 0 0 Z " fill="#021841" transform="translate(278,276)"/>
<path d="M0 0 C1.25725685 -0.00256327 1.25725685 -0.00256327 2.53991282 -0.00517833 C5.34054924 -0.00846518 8.14094459 0.0025172 10.94155884 0.01345825 C12.95227045 0.01402254 14.96298247 0.01370546 16.97369385 0.01257324 C22.42774619 0.01199942 27.88171057 0.02375866 33.33574247 0.03772116 C39.03723931 0.05022346 44.73873816 0.05139862 50.44024658 0.05377197 C61.23485305 0.0599882 72.029419 0.07640099 82.82400763 0.09647095 C95.11411284 0.11882547 107.40421999 0.12982226 119.69434047 0.13986182 C144.97419743 0.16076706 170.25401844 0.19594586 195.53384399 0.24050903 C195.53384399 0.90050903 195.53384399 1.56050903 195.53384399 2.24050903 C193.98332462 2.24685694 193.98332462 2.24685694 192.40148163 2.25333309 C167.24621282 2.35654084 142.09097262 2.46529116 116.93575287 2.57984829 C104.77086843 2.63511907 92.60598106 2.68859093 80.44107056 2.73782349 C69.83776545 2.78074064 59.23448141 2.82703754 48.6312089 2.87738758 C43.01723303 2.90392787 37.40326117 2.92877932 31.78926086 2.94958305 C26.50341437 2.96922416 21.21760772 2.99338995 15.93179703 3.02099991 C13.99364575 3.03033086 12.05548575 3.03802018 10.11732101 3.04392815 C7.46636442 3.05225691 4.8155028 3.06655182 2.1645813 3.08229065 C1.40191247 3.08326876 0.63924365 3.08424686 -0.14653635 3.08525461 C-4.99609908 3.12214956 -9.66321921 3.56028359 -14.46615601 4.24050903 C-14.46615601 3.58050903 -14.46615601 2.92050903 -14.46615601 2.24050903 C-9.59126859 0.29721851 -5.18049775 -0.03887782 0 0 Z " fill="#010F33" transform="translate(52.466156005859375,22.759490966796875)"/>
<path d="M0 0 C0.66 0.33 1.32 0.66 2 1 C2.00586624 2.24312958 2.01173248 3.48625916 2.01777649 4.76705933 C2.07509863 16.50755399 2.14790991 28.24786513 2.23571491 39.98817253 C2.28035845 46.02335132 2.31962797 52.05846354 2.34643555 58.09375 C2.37252833 63.92292051 2.41297331 69.75183401 2.46318626 75.58084488 C2.47981455 77.79983437 2.49135388 80.01886827 2.49761391 82.23791122 C2.50729885 85.35663263 2.53541106 88.47470246 2.56762695 91.59326172 C2.56619186 92.50173355 2.56475677 93.41020538 2.5632782 94.34620667 C2.7304815 105.86248491 6.42033617 114.36081327 14 123 C18.49746837 127.20675749 23.26256516 129.84846194 29 132 C29 132.33 29 132.66 29 133 C21.8899579 133.50638381 18.29647508 130.37911175 13 126 C7.31327647 120.84168884 3.90004259 114.03414586 1 107 C1 106.01 1 105.02 1 104 C0.34 103.67 -0.32 103.34 -1 103 C-1.02312079 89.71812591 -1.04091374 76.43625657 -1.05181217 63.15436649 C-1.05704158 56.9877508 -1.06414027 50.82114882 -1.07543945 44.65454102 C-1.08626629 38.70883994 -1.0922764 32.76315211 -1.09487724 26.81744194 C-1.09673186 24.54353057 -1.10035317 22.26961996 -1.10573006 19.99571419 C-1.11293778 16.8227288 -1.11399106 13.64979883 -1.11352539 10.47680664 C-1.11712067 9.52662659 -1.12071594 8.57644653 -1.12442017 7.59747314 C-1.11405216 1.11405216 -1.11405216 1.11405216 0 0 Z " fill="#000F36" transform="translate(11,167)"/>
<path d="M0 0 C0.66 0 1.32 0 2 0 C1.83826325 0.72881724 1.67652651 1.45763449 1.50988865 2.2085371 C1.04267145 4.76638865 0.86311413 7.06998219 0.84178162 9.66340637 C0.8319928 10.57059418 0.82220398 11.47778198 0.81211853 12.41246033 C0.80636307 13.39501297 0.8006076 14.37756561 0.79467773 15.38989258 C0.78477814 16.43425476 0.77487854 17.47861694 0.76467896 18.55462646 C0.73313091 22.00123845 0.70833292 25.44786422 0.68359375 28.89453125 C0.66301845 31.28635513 0.64202182 33.67817543 0.62062073 36.06999207 C0.5654596 42.36145112 0.51602401 48.65294267 0.46777344 54.94445801 C0.41751493 61.36599617 0.36185156 67.78748722 0.30664062 74.20898438 C0.19913193 86.80594906 0.09748719 99.40295398 0 112 C-0.66 112 -1.32 112 -2 112 C-3.1537983 101.4917421 -3.16368262 91.02807006 -3.16796875 80.47265625 C-3.17119011 78.5928088 -3.17455481 76.71296158 -3.17805481 74.83311462 C-3.18401001 70.91062845 -3.18589834 66.9881642 -3.18530273 63.06567383 C-3.18520108 58.07205225 -3.19887323 53.07857272 -3.21607494 48.08498478 C-3.22726096 44.20791494 -3.22921996 40.3308788 -3.22869301 36.45379448 C-3.22986242 34.61404364 -3.23422484 32.77429163 -3.24202538 30.93455696 C-3.28082611 20.84314256 -3.3163095 10.88936274 -1 1 C-0.67 0.67 -0.34 0.34 0 0 Z " fill="#001540" transform="translate(13,51)"/>
<path d="M0 0 C0.33 0 0.66 0 1 0 C1 67.98 1 135.96 1 206 C0.67 206 0.34 206 0 206 C-0.00808685 204.77668976 -0.01617371 203.55337952 -0.02450562 202.29299927 C-0.10186445 190.7855023 -0.18957742 179.27812506 -0.28752708 167.77078438 C-0.33755304 161.85421231 -0.38388238 155.93765864 -0.421875 150.02099609 C-0.45864837 144.31510082 -0.50498634 138.60935726 -0.55806351 132.90359116 C-0.57664984 130.72264126 -0.59174198 128.54165879 -0.60334396 126.36066055 C-0.62013407 123.31466255 -0.64915116 120.26901525 -0.68115234 117.22314453 C-0.68331253 116.31396271 -0.68547272 115.40478088 -0.68769836 114.4680481 C-0.52142091 109.74979161 -0.52142091 109.74979161 -3 106 C-3.1953125 103.1796875 -3.1953125 103.1796875 -3.125 99.875 C-3.10695313 98.77929688 -3.08890625 97.68359375 -3.0703125 96.5546875 C-3.04710937 95.71164063 -3.02390625 94.86859375 -3 94 C-2.67 94 -2.34 94 -2 94 C-2 96.97 -2 99.94 -2 103 C-1.34 103 -0.68 103 0 103 C0 69.01 0 35.02 0 0 Z " fill="#002A63" transform="translate(13,60)"/>
<path d="M0 0 C11.11798065 4.13432446 19.70368016 11.7418902 25.015625 22.3359375 C26.42300908 26.1448103 26.45425133 28.9874466 26 33 C24.78846714 30.63546244 23.66974464 28.25715415 22.58984375 25.828125 C17.62912468 15.08576409 12.59311765 8.55697013 1.1875 4.125 C0.10855469 3.75632812 -0.97039062 3.38765625 -2.08203125 3.0078125 C-4.52864722 2.16279654 -6.72581704 1.22244217 -9 0 C-5.90820073 -1.54589964 -3.21833426 -0.84473838 0 0 Z " fill="#01133C" transform="translate(255,25)"/>
<path d="M0 0 C0.67578125 1.703125 0.67578125 1.703125 1 4 C-3.76424866 14.11327875 -13.2270596 21.65074302 -23.59375 25.390625 C-27.18870136 26.30103476 -30.31024367 26.27331528 -34 26 C-31.60924128 23.60924128 -30.26246949 23.47293358 -27 22.75 C-16.33686433 19.94464624 -8.59942495 14.21986883 -2.68359375 4.93359375 C-1.7445841 3.31404749 -0.86477642 1.66037072 0 0 Z " fill="#021134" transform="translate(278,276)"/>
<path d="M0 0 C-0.72445312 0.42410156 -1.44890625 0.84820313 -2.1953125 1.28515625 C-11.0473963 6.65542042 -16.18296212 11.9217363 -21 21 C-21.92083735 18.5221104 -22.16779053 17.40391204 -21.13671875 14.921875 C-16.79580544 8.41635533 -8.64308448 -2.59292535 0 0 Z " fill="#011237" transform="translate(37,28)"/>
<path d="M0 0 C10.13466286 1.44516216 20.50606678 9.21623629 26.71484375 17.20703125 C27.13894531 17.79871094 27.56304687 18.39039063 28 19 C27.67 19.66 27.34 20.32 27 21 C26.34515625 20.28714844 25.6903125 19.57429688 25.015625 18.83984375 C17.58167711 10.96253019 9.73292939 5.80894147 0 1 C0 0.67 0 0.34 0 0 Z " fill="#001034" transform="translate(166,110)"/>
<path d="M0 0 C16.335 0.495 16.335 0.495 33 1 C33 1.33 33 1.66 33 2 C25.08 2 17.16 2 9 2 C8.67 2.66 8.34 3.32 8 4 C5.64828869 3.40138258 3.3140622 2.73075648 1 2 C0.67 1.34 0.34 0.68 0 0 Z " fill="#00194A" transform="translate(41,300)"/>
<path d="M0 0 C2.76896397 -0.50344799 4.44713224 -0.38107953 6.78515625 1.23046875 C9.65238373 3.69591913 12.3390922 6.31490213 15 9 C9.95476127 7.70935753 7.54743851 5.73919195 4 2 C3.01 1.67 2.02 1.34 1 1 C1.061875 2.093125 1.12375 3.18625 1.1875 4.3125 C1 8 1 8 -0.5 9.9375 C-0.995 10.288125 -1.49 10.63875 -2 11 C-3.13643966 7.59068103 -2.86747764 6.99664544 -1.5625 3.8125 C-1.13130859 2.73935547 -1.13130859 2.73935547 -0.69140625 1.64453125 C-0.46324219 1.10183594 -0.23507813 0.55914062 0 0 Z " fill="#000C29" transform="translate(203,176)"/>
<path d="M0 0 C0.33 0 0.66 0 1 0 C1 7.26 1 14.52 1 22 C0.34 22 -0.32 22 -1 22 C-1.33 17.71 -1.66 13.42 -2 9 C-1.34 9 -0.68 9 0 9 C0 6.03 0 3.06 0 0 Z " fill="#000D31" transform="translate(12,141)"/>
<path d="M0 0 C0.66 0.33 1.32 0.66 2 1 C1.0919838 2.13199353 0.17316174 3.25532363 -0.75 4.375 C-1.26046875 5.00148437 -1.7709375 5.62796875 -2.296875 6.2734375 C-4.08199481 8.08312318 -5.67949644 9.00117455 -8 10 C-6.5682479 4.98886765 -4.01554307 3.05530451 0 0 Z " fill="#001337" transform="translate(127,136)"/>
<path d="M0 0 C0.33 0 0.66 0 1 0 C1 2.97 1 5.94 1 9 C1.66 9 2.32 9 3 9 C3 10.65 3 12.3 3 14 C2.01 13.34 1.02 12.68 0 12 C-0.29296875 9.1796875 -0.29296875 9.1796875 -0.1875 5.875 C-0.16042969 4.77929688 -0.13335937 3.68359375 -0.10546875 2.5546875 C-0.07066406 1.71164063 -0.03585937 0.86859375 0 0 Z " fill="#00204F" transform="translate(10,154)"/>
<path d="M0 0 C2.97 0.33 5.94 0.66 9 1 C8.67 1.99 8.34 2.98 8 4 C5.64828869 3.40138258 3.3140622 2.73075648 1 2 C0.67 1.34 0.34 0.68 0 0 Z " fill="#010E2E" transform="translate(41,300)"/>
<path d="M0 0 C3.91211733 1.15585285 6.8745041 2.35534962 10 5 C4.60158311 5.49076517 4.60158311 5.49076517 1.625 3.0625 C0 1 0 1 0 0 Z " fill="#010D2D" transform="translate(30,295)"/>
<path d="M0 0 C0.99 0 1.98 0 3 0 C3 1.32 3 2.64 3 4 C2.34 4 1.68 4 1 4 C1 6.64 1 9.28 1 12 C0.67 12 0.34 12 0 12 C0 8.04 0 4.08 0 0 Z " fill="#001D44" transform="translate(10,215)"/>
<path d="M0 0 C0.66 0 1.32 0 2 0 C3.60725635 3.21451269 3.05748185 6.43612536 3 10 C1.11608215 6.73454239 0.50712033 3.71888239 0 0 Z " fill="#010E30" transform="translate(278,48)"/>
<path d="M0 0 C2.64 0 5.28 0 8 0 C8 0.33 8 0.66 8 1 C5.36 1 2.72 1 0 1 C0 0.67 0 0.34 0 0 Z " fill="#001D27" transform="translate(130,305)"/>
<path d="M0 0 C2.31 0 4.62 0 7 0 C7 0.33 7 0.66 7 1 C4.69 1 2.38 1 0 1 C0 0.67 0 0.34 0 0 Z " fill="#00124E" transform="translate(184,305)"/>
<path d="M0 0 C1.98 0 3.96 0 6 0 C6 0.33 6 0.66 6 1 C4.02 1 2.04 1 0 1 C0 0.67 0 0.34 0 0 Z " fill="#000071" transform="translate(105,305)"/>
<path d="M0 0 C1.65 0 3.3 0 5 0 C5 0.33 5 0.66 5 1 C3.35 1 1.7 1 0 1 C0 0.67 0 0.34 0 0 Z " fill="#00115D" transform="translate(114,305)"/>
<path d="M0 0 C1.65 0 3.3 0 5 0 C5 0.33 5 0.66 5 1 C3.35 1 1.7 1 0 1 C0 0.67 0 0.34 0 0 Z " fill="#00002A" transform="translate(66,305)"/>
<path d="M0 0 C4 1 4 1 4 1 Z " fill="#000F25" transform="translate(203,305)"/>
<path d="M0 0 C4 1 4 1 4 1 Z " fill="#000015" transform="translate(195,305)"/>
<path d="M0 0 C4 1 4 1 4 1 Z " fill="#00003F" transform="translate(163,305)"/>
<path d="M0 0 C4 1 4 1 4 1 Z " fill="#00001F" transform="translate(144,305)"/>
<path d="M0 0 C4 1 4 1 4 1 Z " fill="#00001F" transform="translate(91,305)"/>
<path d="M0 0 C3 1 3 1 3 1 Z " fill="#001569" transform="translate(180,305)"/>
<path d="M0 0 C3 1 3 1 3 1 Z " fill="#000054" transform="translate(168,305)"/>
<path d="M0 0 C3 1 3 1 3 1 Z " fill="#001176" transform="translate(101,305)"/>
<path d="M0 0 C0.66 0 1.32 0 2 0 C1.67 0.66 1.34 1.32 1 2 C0.67 1.34 0.34 0.68 0 0 Z " fill="#000054" transform="translate(85,305)"/>
<path d="M0 0 C2 1 2 1 2 1 Z " fill="#00003F" transform="translate(221,305)"/>
<path d="M0 0 C2 1 2 1 2 1 Z " fill="#001F4A" transform="translate(160,305)"/>
<path d="M0 0 C2 1 2 1 2 1 Z " fill="#001972" transform="translate(149,305)"/>
<path d="M0 0 C2 1 2 1 2 1 Z " fill="#000055" transform="translate(141,305)"/>
<path d="M0 0 C2 1 2 1 2 1 Z " fill="#000000" transform="translate(88,305)"/>
<path d="M0 0 C2 1 2 1 2 1 Z " fill="#00003F" transform="translate(61,305)"/>
<path d="M0 0 C2 1 2 1 2 1 Z " fill="#00003F" transform="translate(53,305)"/>
<path d="" fill="#001F1F" transform="translate(0,0)"/>
<path d="" fill="#000000" transform="translate(0,0)"/>
<path d="" fill="#000000" transform="translate(0,0)"/>
<path d="" fill="#000000" transform="translate(0,0)"/>
<path d="" fill="#000000" transform="translate(0,0)"/>
<path d="" fill="#00007F" transform="translate(0,0)"/>
<path d="" fill="#00007F" transform="translate(0,0)"/>
<path d="" fill="#00007F" transform="translate(0,0)"/>
<path d="" fill="#000000" transform="translate(0,0)"/>
<path d="" fill="#000000" transform="translate(0,0)"/>
<path d="" fill="#00007F" transform="translate(0,0)"/>
<path d="" fill="#00007F" transform="translate(0,0)"/>
<path d="" fill="#000000" transform="translate(0,0)"/>
<path d="" fill="#000000" transform="translate(0,0)"/>
<path d="" fill="#00007F" transform="translate(0,0)"/>
<path d="" fill="#000000" transform="translate(0,0)"/>
<path d="" fill="#000000" transform="translate(0,0)"/>
<path d="" fill="#000000" transform="translate(0,0)"/>
<path d="" fill="#000000" transform="translate(0,0)"/>
<path d="" fill="#000000" transform="translate(0,0)"/>
<path d="" fill="#00007F" transform="translate(0,0)"/>
<path d="" fill="#000000" transform="translate(0,0)"/>
<path d="" fill="#000000" transform="translate(0,0)"/>
<path d="" fill="#000000" transform="translate(0,0)"/>
<path d="" fill="#000000" transform="translate(0,0)"/>
<path d="" fill="#000000" transform="translate(0,0)"/>
<path d="" fill="#000000" transform="translate(0,0)"/>
<path d="" fill="#00007F" transform="translate(0,0)"/>
<path d="" fill="#00007F" transform="translate(0,0)"/>
<path d="" fill="#000000" transform="translate(0,0)"/>
<path d="" fill="#000000" transform="translate(0,0)"/>
<path d="" fill="#00007F" transform="translate(0,0)"/>
<path d="" fill="#000000" transform="translate(0,0)"/>
<path d="" fill="#000000" transform="translate(0,0)"/>
<path d="" fill="#000000" transform="translate(0,0)"/>
<path d="" fill="#000000" transform="translate(0,0)"/>
<path d="" fill="#000000" transform="translate(0,0)"/>
</svg>
